<svg clip-rule="evenodd" fill-rule="evenodd" stroke-linejoin="round" stroke-miterlimit="1.41421" viewBox="0 0 1600 500" xmlns="http://www.w3.org/2000/svg"><g fill="#bc2d19"><path d="m307.231 129.426v-86.328h50.217v86.316l22.249-.006v167.502h13.136v-60.422l9.961-15.062 53.446.036 8.862 15.169v60.658h15.233v-55.601h44.904v36.844h75.125v50.325l45.021-.076v-117.736h47.939v118.131h15.741v-21.6h-5.434l29.48-24.008 34.116 22.457h-4.082v23.4l44.705-.056v-48.197h86.274v48.281h19.209v-159.036l96.988.38v136.098h13.136v-60.422l71.314.141 71.315-.141v60.422h13.136v-166.098l96.988-.38v189.036h19.209v-48.281h86.274v48.197l44.705.056v-23.4h-4.082l34.116-22.457 29.48 24.008h-5.435v21.6h15.742v-118.131h47.939v117.736l45.021.076v-50.325h75.125v-36.844h44.904v55.601h15.233v-60.658l8.862-15.169 53.446-.036 9.961 15.062v60.422h13.136v-167.502l96.988.024v190.036h19.209v-48.281h86.274v48.197h22.608l3.406.056h18.691v-23.4h-4.082l34.116-22.457 29.48 24.008h-5.434v21.6h15.741v-118.131h47.939v117.736l45.021.076v-50.325h79.74v228.667h-630.624v9.985l-574.148-7.18-574.147 7.18v-9.985h-630.624v-228.667h79.74v50.325l45.021-.076v-117.736h47.939v118.131h15.741v-21.6h-5.434l29.48-24.008 34.116 22.457h-4.083v23.4h18.692l3.406-.056h22.608v-48.197h86.274v48.281h19.209v-190.036l24.522-.006z" fill-opacity=".35"/><path d="m1161.09 334.825 15.358 13.863v55.613h20.252v-153.879l149.531-.27v174.912h29.615v-44.438h133.014v44.36h34.856l5.252.052h28.817v-21.538h-6.295l52.599-20.67 45.451 22.098h-8.379v19.88h24.27v-108.728h73.91v108.365h19.906s21.071-51.721.535-88.73l33.825-29.834v118.634h15.145v-46.32h122.939v154.865l-1951.69 9.19.039-86.833v-92.752h69.231v51.175h23.486v-55.83l13.662-13.962h14.678s4.828-25.539 24.991-25.539c20.161 0 25.936 19.221 25.937 26.506h16.795l15.358 12.863v55.613h20.251v-152.879h59.181v63.086h34.864v-64.355h55.487v174.911h29.615v-44.438h133.014v44.361h29.856v-195.782c-13.609-2.637-23.598-11.254-23.598-21.466 0-11.571 12.824-21.095 29.207-22.19l2.182-25.331 2.307 25.244c14.104.393 25.895 7.016 29.726 15.977.854 1.998 1.312 4.112 1.312 6.3 0 10.776-11.123 19.777-25.885 21.847v195.452h23.818v-21.538h-6.295l52.599-20.669 45.451 22.097h-8.379v19.88h24.27v-108.728h73.91v108.365h19.906s21.071-51.72.534-88.729l33.826-29.835v118.634h15.145v-46.32h115.824v-33.911h69.231v51.176h23.486v-55.831l13.662-13.962 82.401-.032z"/></g></svg>